<?xml version="1.0" encoding="UTF-8"?>
<svg version="1.1" xmlns="http://www.w3.org/2000/svg" width="38" height="39">
<path d="M0 0 C4.90956913 3.2003967 9.51350952 7.91552856 11.375 13.5 C12.16223417 20.04307744 11.13402079 25.05931201 7.375 30.5 C3.08708143 35.03294249 -2.78667609 37.33559074 -8.99609375 37.6015625 C-14.1575408 37.23599627 -17.62873332 35.93864807 -21.625 32.5 C-26.17382641 26.47587854 -27.2522201 21.86402863 -26.625 14.5 C-25.71392919 9.72845964 -24.46777876 5.82992927 -20.75 2.5625 C-13.93465388 -1.93562844 -7.69372474 -3.18361024 0 0 Z " fill="#4CBE2B" transform="translate(26.625,1.5)"/>
<path d="M0 0 C3.77160925 3.52827962 5.13891325 6.02557819 5.3125 11.1875 C5.24721518 16.19810991 3.86684891 19.90847777 1 24 C-2.4403912 27.26837164 -5.73788107 29.71723513 -10.5 30.3125 C-13.61145944 29.92356757 -14.89735053 29.33627719 -17 27 C-17.78172528 23.09137362 -17.2492161 21.41249561 -15.1875 18 C-11.92650163 14.4185567 -7.70237514 12.44963945 -3.42578125 10.296875 C-0.90844943 9.10191775 -0.90844943 9.10191775 1 7 C0.67673447 3.40320934 0.67673447 3.40320934 0 0 Z " fill="#DAD8D7" transform="translate(33,8)"/>
<path d="M0 0 C4.1292536 2.26499143 7.2831799 4.22203186 8.8515625 8.703125 C8.9765625 11.203125 8.9765625 11.203125 7.734375 12.82421875 C5.03281322 14.94344388 2.92494189 14.79033847 -0.421875 14.703125 C-4.57369341 13.90517792 -7.82979526 11.75496811 -11.42578125 9.60546875 C-14.75169469 7.80997563 -17.28482754 7.36928544 -21.0234375 7.203125 C-21.3534375 8.193125 -21.6834375 9.183125 -22.0234375 10.203125 C-22.3534375 9.543125 -22.6834375 8.883125 -23.0234375 8.203125 C-17.51768908 0.69528625 -9.27952525 -3.65448485 0 0 Z " fill="#DFA217" transform="translate(25.0234375,0.796875)"/>
<path d="M0 0 C1.39776983 0.87190321 2.7934451 1.74716936 4.1875 2.625 C9.39075604 5.65283329 14.12617603 5.49405996 20 5 C20.33 4.01 20.66 3.02 21 2 C21.33 3.32 21.66 4.64 22 6 C17.93615511 9.64704028 13.93854904 12.25174323 9.05078125 14.69140625 C6.66618017 16.21300885 5.43207652 17.56366855 4 20 C3.64131841 22.12972821 3.64131841 22.12972821 3.8125 24.25 C3.874375 25.4875 3.93625 26.725 4 28 C3.34 28 2.68 28 2 28 C-0.35522077 23.58396105 -1.16644031 20.52788424 -1 15.5 C-0.86741946 10.42704975 -1.31996272 7.3435087 -4 3 C-6.54368999 1.49547543 -6.54368999 1.49547543 -9 1 C-9 0.34 -9 -0.32 -9 -1 C-5.06698252 -2.31100583 -3.83060088 -1.56061517 0 0 Z " fill="#841717" transform="translate(13,9)"/>
<path d="M0 0 C0.33 1.32 0.66 2.64 1 4 C-5.0562501 9.33526794 -9.57511498 12.5054931 -18 12 C-19.28571429 4.57142857 -19.28571429 4.57142857 -18 1 C-16.8553125 1.495 -16.8553125 1.495 -15.6875 2 C-10.74825349 3.33945668 -6.08536891 3.16287658 -1 3 C-0.67 2.01 -0.34 1.02 0 0 Z " fill="#A21D1D" transform="translate(34,11)"/>
<path d="M0 0 C0.33 1.32 0.66 2.64 1 4 C-2.56430755 7.14985318 -5.40693504 9.5140084 -10 11 C-10 9.02 -10 7.04 -10 5 C-7.69 5 -5.38 5 -3 5 C-3 4.34 -3 3.68 -3 3 C-2.34 3 -1.68 3 -1 3 C-0.67 2.01 -0.34 1.02 0 0 Z " fill="#551B14" transform="translate(34,11)"/>
<path d="M0 0 C-2.71494932 2.71494932 -5.21472069 2.76631285 -8.90625 3.4375 C-11.1997607 3.8668085 -11.1997607 3.8668085 -13 6 C-15.625 6.125 -15.625 6.125 -18 6 C-12.57151162 -0.03165375 -7.7230563 -0.30286495 0 0 Z " fill="#C88D13" transform="translate(23,0)"/>
<path d="M0 0 C0.33 0.99 0.66 1.98 1 3 C-1.78202716 8.56405432 -5.63086291 11.05479373 -11 14 C-11 13.01 -11 12.02 -11 11 C-10.360625 10.71125 -9.72125 10.4225 -9.0625 10.125 C-6.84793921 9.17176549 -6.84793921 9.17176549 -6 7 C-5.34 7 -4.68 7 -4 7 C-3.71125 6.401875 -3.4225 5.80375 -3.125 5.1875 C-2 3 -2 3 0 0 Z " fill="#C6C6C6" transform="translate(36,24)"/>
<path d="M0 0 C0.804375 0.309375 1.60875 0.61875 2.4375 0.9375 C6.62249087 2.18565517 10.66306101 2.6337696 15 3 C15 3.33 15 3.66 15 4 C12.69 4 10.38 4 8 4 C8 5.98 8 7.96 8 10 C7.01 10.495 7.01 10.495 6 11 C6.185625 9.88625 6.185625 9.88625 6.375 8.75 C6.25125 7.8425 6.1275 6.935 6 6 C3.05763218 3.78831775 3.05763218 3.78831775 0 2 C0 1.34 0 0.68 0 0 Z " fill="#8F2E16" transform="translate(16,12)"/>
<path d="M0 0 C0.33 0.99 0.66 1.98 1 3 C0.34 3 -0.32 3 -1 3 C-1.33 3.99 -1.66 4.98 -2 6 C-2.4125 5.360625 -2.825 4.72125 -3.25 4.0625 C-5.17810487 1.79009069 -6.11424181 1.39803561 -9 1 C-9 0.34 -9 -0.32 -9 -1 C-5.19881294 -2.26706235 -3.6149628 -1.57172296 0 0 Z " fill="#5F240F" transform="translate(13,9)"/>
<path d="M0 0 C2.475 0.495 2.475 0.495 5 1 C5 3.97 5 6.94 5 10 C4.34 10 3.68 10 3 10 C0 3.375 0 3.375 0 0 Z " fill="#531B13" transform="translate(12,27)"/>
<path d="M0 0 C4.51720311 -0.36625971 4.51720311 -0.36625971 6.8125 1.375 C8 3 8 3 8 5 C3.545 4.01 3.545 4.01 -1 3 C-0.67 2.01 -0.34 1.02 0 0 Z " fill="#469C23" transform="translate(3,10)"/>
<path d="M0 0 C2.475 0.495 2.475 0.495 5 1 C4.1875 2.9375 4.1875 2.9375 3 5 C2.01 5.33 1.02 5.66 0 6 C0 4.02 0 2.04 0 0 Z " fill="#741514" transform="translate(24,16)"/>
<path d="M0 0 C0.99 0.33 1.98 0.66 3 1 C3 1.99 3 2.98 3 4 C2.34 4 1.68 4 1 4 C0.67 5.65 0.34 7.3 0 9 C-0.33 9 -0.66 9 -1 9 C-1.125 2.25 -1.125 2.25 0 0 Z " fill="#731D13" transform="translate(13,10)"/>
<path d="M0 0 C0.99 0.495 0.99 0.495 2 1 C2 1.66 2 2.32 2 3 C3.32 2.67 4.64 2.34 6 2 C6.33 2.99 6.66 3.98 7 5 C5.02 5 3.04 5 1 5 C0.67 3.35 0.34 1.7 0 0 Z " fill="#47992E" transform="translate(13,34)"/>
</svg>
